# xmcd CD database file
#
# Track frame offsets:
#	150
#	14102
#	30632
#	49224
#	64556
#	79444
#	97067
#	114947
#	129514
#	143328
#	161913
#	184634
#
# Disc length: 2735 seconds
#
# Revision: 0
# Processed by: cddbd v1.5.1PL2 Copyright (c) Steve Scherf et al.
# Submitted via: CDex 1.51
#
DISCID=a10aad0c
DTITLE=Gary Delz Power Trio - Here To Stay
DYEAR=2001
DGENRE=Blues
TTITLE0=Dance
TTITLE1=Mystic Kindred Soul
TTITLE2=Ball and Chain
TTITLE3=Here to Stay
TTITLE4=Your Love is Like a Liquor
TTITLE5=Velvet Groove
TTITLE6=Me, Jim Beam, and Mary Ann
TTITLE7=Soul Man
TTITLE8=Grey Sky Blues
TTITLE9=Firewave
TTITLE10=The River
TTITLE11=April Moon
EXTD=YEAR: 2001
EXTT0=
EXTT1=
EXTT2=
EXTT3=
EXTT4=
EXTT5=
EXTT6=
EXTT7=
EXTT8=
EXTT9=
EXTT10=
EXTT11=
PLAYORDER=
